<svg id="Calque_1" data-name="Calque 1" xmlns="http://www.w3.org/2000/svg" xmlns:xlink="http://www.w3.org/1999/xlink" viewBox="0 0 300 300">
  <defs>
    <style>
      .cls-1 {
        fill: none;
      }

      .cls-2 {
        fill: #fff;
      }

      .cls-3 {
        clip-path: url(#clip-path);
      }
    </style>
    <clipPath id="clip-path">
      <circle class="cls-1" cx="149.78" cy="145.32" r="31.73" transform="translate(-24.66 30.77) rotate(-10.84)"/>
    </clipPath>
  </defs>
  <title>PICTO-ANALYSER</title>
  <g>
    <g>
      <circle class="cls-2" cx="149.84" cy="157.41" r="122.5"/>
      <path d="M149.84,37.41A120,120,0,1,1,65,72.55a119.21,119.21,0,0,1,84.85-35.15m0-2.5a122.5,122.5,0,1,0,122.5,122.5,122.5,122.5,0,0,0-122.5-122.5Z"/>
    </g>
    <g>
      <path d="M88.75,121.86c-3.62-.34-3.64-4.7-3.45-6.72,0-.27.18-1.22.32-1.86.39-1.71,1.33-3.55,3.13-3.92a4.59,4.59,0,0,1,1.24-.05,3.3,3.3,0,0,1,2.9,2.12,8.62,8.62,0,0,1,.51,4.28C93.22,117.69,92.65,122.23,88.75,121.86ZM91.88,112a2.46,2.46,0,0,0-2.07-1.51c-2.32-.22-3.14,2.38-3.36,4.81a12.38,12.38,0,0,0,.11,3.11,2.62,2.62,0,0,0,2.35,2.32c2.49.23,3.12-2.7,3.32-4.83l0-.19A8.09,8.09,0,0,0,91.88,112Z"/>
      <path d="M97.22,122.4l.11-1.16,3.71.35.91-9.67-3.78.41.11-1.16,5-.62-1,11.14,3.6.34-.11,1.16Z"/>
      <path d="M109.85,123.58l.11-1.16,3.71.35.91-9.67-3.78.41.11-1.16,5-.62-1,11.14,3.6.34-.11,1.16Z"/>
      <path d="M189.85,131.33c-3.62-.34-3.64-4.7-3.45-6.72,0-.27.18-1.22.32-1.86.39-1.71,1.33-3.55,3.13-3.92a4.63,4.63,0,0,1,1.24-.05,3.3,3.3,0,0,1,2.9,2.12,8.62,8.62,0,0,1,.51,4.28C194.32,127.16,193.75,131.7,189.85,131.33Zm3.14-9.89a2.47,2.47,0,0,0-2.07-1.51c-2.32-.22-3.13,2.38-3.36,4.81a12.33,12.33,0,0,0,.11,3.11,2.62,2.62,0,0,0,2.35,2.32c2.49.23,3.12-2.7,3.32-4.83l0-.19A8.08,8.08,0,0,0,193,121.44Z"/>
      <path d="M202.49,132.52c-3.62-.34-3.64-4.7-3.45-6.72,0-.27.18-1.22.32-1.86.39-1.71,1.33-3.55,3.13-3.92a4.63,4.63,0,0,1,1.24-.05,3.3,3.3,0,0,1,2.9,2.12,8.64,8.64,0,0,1,.51,4.28C207,128.34,206.39,132.88,202.49,132.52Zm3.14-9.89a2.47,2.47,0,0,0-2.07-1.51c-2.32-.22-3.13,2.38-3.36,4.81a12.36,12.36,0,0,0,.11,3.11,2.62,2.62,0,0,0,2.35,2.32c2.49.23,3.12-2.7,3.32-4.83l0-.19A8.1,8.1,0,0,0,205.63,122.63Z"/>
      <path d="M215.13,133.7c-3.62-.34-3.64-4.7-3.45-6.72,0-.27.18-1.22.32-1.86.39-1.71,1.33-3.55,3.13-3.92a4.59,4.59,0,0,1,1.24-.05,3.3,3.3,0,0,1,2.9,2.12,8.62,8.62,0,0,1,.51,4.28C219.6,129.53,219,134.06,215.13,133.7Zm3.14-9.89a2.46,2.46,0,0,0-2.07-1.51c-2.32-.22-3.13,2.38-3.36,4.81a12.33,12.33,0,0,0,.11,3.11,2.62,2.62,0,0,0,2.35,2.32c2.49.23,3.12-2.7,3.32-4.83l0-.19A8.09,8.09,0,0,0,218.26,123.81Z"/>
      <path d="M86.38,147.14c-3.62-.34-3.64-4.7-3.45-6.72,0-.27.18-1.22.32-1.86.39-1.71,1.33-3.55,3.13-3.92a4.59,4.59,0,0,1,1.24-.05,3.3,3.3,0,0,1,2.9,2.12A8.64,8.64,0,0,1,91,141C90.85,143,90.28,147.5,86.38,147.14Zm3.14-9.89a2.46,2.46,0,0,0-2.07-1.51c-2.32-.22-3.14,2.38-3.36,4.81a12.36,12.36,0,0,0,.11,3.11A2.62,2.62,0,0,0,86.55,146c2.49.23,3.12-2.7,3.32-4.83l0-.19A8.1,8.1,0,0,0,89.52,137.25Z"/>
      <path d="M99,148.32c-3.62-.34-3.64-4.7-3.45-6.72,0-.27.18-1.22.32-1.86.39-1.71,1.33-3.55,3.13-3.92a4.64,4.64,0,0,1,1.24-.05,3.31,3.31,0,0,1,2.9,2.12,8.63,8.63,0,0,1,.51,4.28C103.49,144.15,102.92,148.69,99,148.32Zm3.14-9.89a2.46,2.46,0,0,0-2.07-1.51c-2.32-.22-3.14,2.38-3.36,4.81a12.36,12.36,0,0,0,.11,3.11,2.62,2.62,0,0,0,2.35,2.32c2.49.23,3.12-2.7,3.32-4.83l0-.19A8.1,8.1,0,0,0,102.15,138.44Z"/>
      <path d="M107.49,148.86l.11-1.16,3.71.35.91-9.67-3.78.41.11-1.16,5-.62-1,11.14,3.6.34-.11,1.16Z"/>
      <path d="M187.48,156.61c-3.62-.34-3.64-4.7-3.45-6.72,0-.27.18-1.22.32-1.86.39-1.71,1.33-3.55,3.13-3.92a4.68,4.68,0,0,1,1.24-.05,3.3,3.3,0,0,1,2.9,2.12,8.64,8.64,0,0,1,.51,4.28C192,152.44,191.38,157,187.48,156.61Zm3.14-9.89a2.47,2.47,0,0,0-2.07-1.51c-2.32-.22-3.13,2.38-3.36,4.81a12.33,12.33,0,0,0,.11,3.11,2.62,2.62,0,0,0,2.35,2.32c2.49.23,3.12-2.7,3.32-4.83l0-.19A8.09,8.09,0,0,0,190.62,146.72Z"/>
      <path d="M200.12,157.79c-3.62-.34-3.64-4.7-3.45-6.72,0-.27.18-1.22.32-1.86.39-1.71,1.33-3.55,3.13-3.92a4.59,4.59,0,0,1,1.24-.05,3.3,3.3,0,0,1,2.9,2.12,8.64,8.64,0,0,1,.51,4.28C204.59,153.62,204,158.16,200.12,157.79Zm3.14-9.89a2.46,2.46,0,0,0-2.07-1.51c-2.32-.22-3.13,2.38-3.36,4.81a12.33,12.33,0,0,0,.11,3.11,2.62,2.62,0,0,0,2.35,2.32c2.49.23,3.12-2.7,3.32-4.83l0-.19A8.1,8.1,0,0,0,203.26,147.9Z"/>
      <path d="M208.59,158.33l.11-1.16,3.71.35.91-9.67-3.78.41.11-1.16,5-.62-1,11.14,3.6.34-.11,1.16Z"/>
      <path d="M79.84,171.77l.11-1.16,3.71.35.91-9.67-3.78.41.11-1.16,5-.62-1,11.14,3.6.34-.11,1.16Z"/>
      <path d="M96.65,173.6c-3.62-.34-3.64-4.7-3.45-6.72,0-.27.18-1.22.32-1.86.39-1.71,1.33-3.55,3.13-3.92a4.68,4.68,0,0,1,1.24-.05,3.31,3.31,0,0,1,2.9,2.12,8.63,8.63,0,0,1,.51,4.28C101.12,169.43,100.55,174,96.65,173.6Zm3.14-9.89a2.46,2.46,0,0,0-2.07-1.51c-2.32-.22-3.14,2.38-3.36,4.81a12.36,12.36,0,0,0,.11,3.11,2.62,2.62,0,0,0,2.35,2.32c2.49.23,3.12-2.7,3.32-4.83l0-.19A8.1,8.1,0,0,0,99.79,163.71Z"/>
      <path d="M105.12,174.14l.11-1.16,3.71.35.91-9.67-3.78.41.11-1.16,5-.62-1,11.14,3.6.34-.11,1.16Z"/>
      <path d="M117.76,175.32l.11-1.16,3.71.35.91-9.67-3.78.41.11-1.16,5-.62-1,11.14,3.6.34-.11,1.16Z"/>
      <path d="M168.31,180.05l.11-1.16,3.71.35.91-9.67-3.78.41.11-1.16,5-.62-1,11.14,3.6.34-.11,1.16Z"/>
      <path d="M180.95,181.24l.11-1.16,3.71.35.91-9.67-3.78.41L182,170l5-.62-1,11.14,3.6.34-.11,1.16Z"/>
      <path d="M197.75,183.07c-3.62-.34-3.64-4.7-3.45-6.72,0-.27.18-1.22.32-1.86.39-1.71,1.33-3.55,3.13-3.92a4.68,4.68,0,0,1,1.24-.05,3.3,3.3,0,0,1,2.9,2.12,8.63,8.63,0,0,1,.51,4.28C202.23,178.9,201.65,183.43,197.75,183.07Zm3.14-9.89a2.47,2.47,0,0,0-2.07-1.51c-2.32-.22-3.13,2.38-3.36,4.81a12.33,12.33,0,0,0,.11,3.11,2.62,2.62,0,0,0,2.35,2.32c2.49.23,3.12-2.7,3.32-4.83l0-.19A8.1,8.1,0,0,0,200.89,173.18Z"/>
      <path d="M206.22,183.6l.11-1.16,3.71.35.91-9.67-3.78.41.11-1.16,5-.62-1,11.14,3.6.34-.11,1.16Z"/>
      <path d="M181.84,139.28A33.06,33.06,0,1,0,130,172.23l-24.77,36.5a1.79,1.79,0,1,0,3,2l24.79-36.53,0,0a33,33,0,0,0,48.88-34.89Zm-26.75,36.09a30.41,30.41,0,1,1,24.15-35.59A30.45,30.45,0,0,1,155.09,175.37Z"/>
      <g class="cls-3">
        <g>
          <path d="M64.3,112.24c-5-.47-5-6.43-4.73-9.2,0-.37.24-1.67.44-2.55.54-2.34,1.82-4.87,4.29-5.36A6.29,6.29,0,0,1,66,95,4.53,4.53,0,0,1,70,98a11.81,11.81,0,0,1,.7,5.86C70.42,106.52,69.63,112.74,64.3,112.24ZM68.59,98.7a3.37,3.37,0,0,0-2.83-2.07c-3.17-.3-4.29,3.27-4.6,6.58a17,17,0,0,0,.15,4.26,3.59,3.59,0,0,0,3.22,3.18c3.41.32,4.28-3.7,4.55-6.62l0-.26A11.08,11.08,0,0,0,68.59,98.7Z"/>
          <path d="M75.89,113l.15-1.59,5.08.48,1.24-13.24-5.18.56.15-1.59,6.8-.85L82.71,112l4.93.46-.15,1.59Z"/>
          <path d="M93.2,114.59l.15-1.59,5.08.48,1.24-13.24-5.18.56.15-1.59,6.8-.85L100,113.63l4.93.46-.15,1.59Z"/>
          <path d="M116.22,117.1c-5-.46-5-6.43-4.73-9.2,0-.37.24-1.67.44-2.55.54-2.34,1.82-4.86,4.29-5.36a6.41,6.41,0,0,1,1.69-.07,4.53,4.53,0,0,1,4,2.9,11.82,11.82,0,0,1,.7,5.86C122.34,111.39,121.56,117.6,116.22,117.1Zm4.3-13.54a3.37,3.37,0,0,0-2.83-2.07c-3.17-.3-4.29,3.27-4.6,6.58a16.94,16.94,0,0,0,.15,4.26,3.59,3.59,0,0,0,3.22,3.18c3.41.32,4.28-3.7,4.55-6.62l0-.26A11.08,11.08,0,0,0,120.51,103.56Z"/>
          <path d="M133.53,118.72c-5-.46-5-6.43-4.73-9.2,0-.37.24-1.67.44-2.55.54-2.34,1.82-4.87,4.29-5.36a6.35,6.35,0,0,1,1.69-.07,4.53,4.53,0,0,1,4,2.9,11.81,11.81,0,0,1,.7,5.86C139.65,113,138.87,119.22,133.53,118.72Zm4.3-13.54a3.37,3.37,0,0,0-2.83-2.07c-3.17-.3-4.29,3.27-4.6,6.58a17,17,0,0,0,.15,4.26,3.59,3.59,0,0,0,3.22,3.18c3.41.32,4.28-3.7,4.55-6.62l0-.26A11.09,11.09,0,0,0,137.82,105.18Z"/>
          <path d="M145.13,119.46l.15-1.59,5.08.48,1.24-13.24-5.18.56.15-1.59,6.8-.85-1.43,15.26,4.93.46-.15,1.59Z"/>
          <path d="M168.14,122c-5-.47-5-6.44-4.73-9.21,0-.37.24-1.66.44-2.55.54-2.34,1.82-4.87,4.29-5.36a6.35,6.35,0,0,1,1.69-.07,4.52,4.52,0,0,1,4,2.91,11.8,11.8,0,0,1,.7,5.86C174.27,116.25,173.48,122.46,168.14,122Zm4.29-13.54a3.37,3.37,0,0,0-2.83-2.07c-3.17-.3-4.29,3.27-4.6,6.58a16.92,16.92,0,0,0,.15,4.26,3.59,3.59,0,0,0,3.22,3.18c3.4.32,4.28-3.7,4.55-6.62l0-.26A11.08,11.08,0,0,0,172.44,108.42Z"/>
          <path d="M179.74,122.7l.15-1.59,5.08.48,1.24-13.24-5.18.56.15-1.59,6.8-.85-1.43,15.26,4.93.46-.15,1.59Z"/>
          <path d="M202.76,125.2c-5-.46-5-6.43-4.73-9.2,0-.37.24-1.67.44-2.55.54-2.34,1.82-4.86,4.29-5.36a6.35,6.35,0,0,1,1.69-.07,4.52,4.52,0,0,1,4,2.9,11.81,11.81,0,0,1,.7,5.86C208.88,119.49,208.1,125.71,202.76,125.2Zm4.3-13.54a3.38,3.38,0,0,0-2.83-2.07c-3.17-.3-4.29,3.27-4.6,6.58a16.88,16.88,0,0,0,.15,4.26,3.59,3.59,0,0,0,3.22,3.18c3.4.32,4.27-3.7,4.55-6.62l0-.26A11.06,11.06,0,0,0,207.06,111.66Z"/>
          <path d="M220.07,126.83c-5-.47-5-6.43-4.73-9.2,0-.37.24-1.67.44-2.55.54-2.34,1.82-4.87,4.29-5.36a6.35,6.35,0,0,1,1.69-.07,4.52,4.52,0,0,1,4,2.9,11.83,11.83,0,0,1,.7,5.86C226.19,121.11,225.41,127.33,220.07,126.83Zm4.3-13.54a3.38,3.38,0,0,0-2.83-2.07c-3.17-.3-4.29,3.27-4.6,6.58a16.92,16.92,0,0,0,.15,4.26,3.59,3.59,0,0,0,3.22,3.18c3.4.32,4.28-3.7,4.55-6.62l0-.26A11.09,11.09,0,0,0,224.36,113.29Z"/>
          <path d="M237.38,128.45c-5-.47-5-6.43-4.73-9.2,0-.37.24-1.67.44-2.55.54-2.34,1.82-4.87,4.29-5.36a6.29,6.29,0,0,1,1.69-.07,4.52,4.52,0,0,1,4,2.9,11.81,11.81,0,0,1,.7,5.86C243.5,122.73,242.72,128.95,237.38,128.45Zm4.3-13.54a3.37,3.37,0,0,0-2.83-2.07c-3.17-.3-4.29,3.27-4.6,6.58a16.89,16.89,0,0,0,.15,4.26,3.59,3.59,0,0,0,3.22,3.18c3.41.32,4.28-3.7,4.55-6.62l0-.26A11.07,11.07,0,0,0,241.67,114.91Z"/>
          <path d="M249,129.18l.15-1.59,5.08.48,1.24-13.24-5.18.56.15-1.59,6.8-.85-1.43,15.26,4.93.46-.15,1.59Z"/>
          <path d="M61.05,146.85c-5-.46-5-6.43-4.73-9.2,0-.38.24-1.67.44-2.55.54-2.34,1.82-4.87,4.29-5.36a6.29,6.29,0,0,1,1.69-.07,4.53,4.53,0,0,1,4,2.9,11.83,11.83,0,0,1,.7,5.86C67.18,141.14,66.39,147.35,61.05,146.85Zm4.29-13.54a3.37,3.37,0,0,0-2.83-2.07c-3.17-.3-4.29,3.27-4.6,6.58a16.92,16.92,0,0,0,.15,4.26,3.59,3.59,0,0,0,3.22,3.18c3.41.32,4.28-3.7,4.55-6.62l0-.26A11.09,11.09,0,0,0,65.35,133.31Z"/>
          <path d="M78.36,148.47c-5-.46-5-6.43-4.73-9.2,0-.37.24-1.67.44-2.55.54-2.34,1.82-4.87,4.29-5.36a6.35,6.35,0,0,1,1.69-.07,4.53,4.53,0,0,1,4,2.91,11.82,11.82,0,0,1,.7,5.86C84.48,142.76,83.7,149,78.36,148.47Zm4.29-13.54a3.37,3.37,0,0,0-2.83-2.07c-3.17-.3-4.29,3.27-4.6,6.58a16.92,16.92,0,0,0,.15,4.26,3.59,3.59,0,0,0,3.22,3.18c3.41.32,4.28-3.7,4.55-6.62l0-.26A11.09,11.09,0,0,0,82.66,134.93Z"/>
          <path d="M90,149.21l.15-1.59,5.08.48,1.24-13.24-5.18.56.15-1.59,6.8-.85-1.43,15.26,4.93.46-.15,1.59Z"/>
          <path d="M113,151.72c-5-.47-5-6.43-4.73-9.2,0-.38.24-1.67.44-2.55.54-2.34,1.82-4.86,4.29-5.36a6.41,6.41,0,0,1,1.69-.07,4.53,4.53,0,0,1,4,2.9,11.83,11.83,0,0,1,.7,5.86C119.1,146,118.32,152.22,113,151.72Zm4.3-13.54a3.37,3.37,0,0,0-2.83-2.07c-3.17-.3-4.29,3.27-4.6,6.58A16.91,16.91,0,0,0,110,147a3.59,3.59,0,0,0,3.22,3.18c3.41.32,4.28-3.7,4.55-6.62l0-.26A11.09,11.09,0,0,0,117.27,138.18Z"/>
          <path d="M130.29,153.34c-5-.47-5-6.43-4.73-9.2,0-.38.24-1.67.44-2.55.54-2.34,1.82-4.86,4.29-5.36a6.35,6.35,0,0,1,1.69-.07,4.53,4.53,0,0,1,4,2.9,11.83,11.83,0,0,1,.7,5.86C136.41,147.62,135.62,153.84,130.29,153.34Zm4.3-13.54a3.37,3.37,0,0,0-2.83-2.07c-3.17-.3-4.29,3.27-4.6,6.58a17,17,0,0,0,.15,4.26,3.59,3.59,0,0,0,3.22,3.18c3.41.32,4.28-3.7,4.55-6.62l0-.26A11.09,11.09,0,0,0,134.58,139.8Z"/>
          <path d="M141.88,154.07l.15-1.59,5.08.48,1.24-13.24-5.18.56.15-1.59,6.8-.85-1.43,15.26,4.93.46-.15,1.59Z"/>
          <path d="M164.9,156.58c-5-.46-5-6.43-4.73-9.2,0-.37.24-1.67.44-2.55.54-2.34,1.82-4.87,4.29-5.36a6.35,6.35,0,0,1,1.69-.07,4.52,4.52,0,0,1,4,2.91,11.82,11.82,0,0,1,.7,5.86C171,150.86,170.24,157.08,164.9,156.58ZM169.2,143a3.37,3.37,0,0,0-2.83-2.07c-3.17-.3-4.29,3.26-4.6,6.58a16.92,16.92,0,0,0,.15,4.26,3.59,3.59,0,0,0,3.22,3.18c3.41.32,4.28-3.7,4.55-6.62l0-.26A11.1,11.1,0,0,0,169.2,143Z"/>
          <path d="M176.5,157.32l.15-1.59,5.08.48L183,143l-5.18.56.15-1.59,6.8-.85-1.43,15.26,4.93.46-.15,1.59Z"/>
          <path d="M199.52,159.82c-5-.47-5-6.43-4.73-9.2,0-.38.24-1.67.44-2.55.54-2.34,1.82-4.86,4.29-5.36a6.4,6.4,0,0,1,1.69-.07,4.52,4.52,0,0,1,4,2.9,11.83,11.83,0,0,1,.7,5.86C205.64,154.11,204.86,160.32,199.52,159.82Zm4.3-13.54a3.38,3.38,0,0,0-2.83-2.07c-3.17-.3-4.29,3.27-4.6,6.58a16.89,16.89,0,0,0,.15,4.26,3.59,3.59,0,0,0,3.22,3.18c3.41.32,4.28-3.7,4.55-6.62l0-.26A11.07,11.07,0,0,0,203.81,146.28Z"/>
          <path d="M216.83,161.44c-5-.46-5-6.43-4.73-9.2,0-.38.24-1.67.44-2.55.54-2.34,1.82-4.87,4.29-5.36a6.29,6.29,0,0,1,1.69-.07,4.52,4.52,0,0,1,4,2.9,11.84,11.84,0,0,1,.7,5.86C223,155.73,222.17,161.94,216.83,161.44Zm4.3-13.54a3.37,3.37,0,0,0-2.83-2.07c-3.17-.3-4.29,3.27-4.6,6.58a16.89,16.89,0,0,0,.15,4.26,3.59,3.59,0,0,0,3.22,3.18c3.4.32,4.28-3.7,4.55-6.62l0-.26A11.09,11.09,0,0,0,221.12,147.9Z"/>
          <path d="M228.43,162.18l.15-1.59,5.08.48,1.24-13.24-5.18.56.15-1.59,6.8-.85-1.43,15.26,4.93.46-.15,1.59Z"/>
          <path d="M245.73,163.8l.15-1.59,5.08.48,1.24-13.24L247,150l.15-1.59,6.8-.85-1.43,15.26,4.93.46-.15,1.59Z"/>
          <path d="M52.1,180.59l.15-1.59,5.08.48,1.24-13.24-5.18.56.15-1.59,6.8-.85-1.43,15.26,4.93.46-.15,1.59Z"/>
          <path d="M75.12,183.09c-5-.46-5-6.43-4.73-9.2,0-.38.24-1.67.44-2.55.54-2.34,1.82-4.87,4.29-5.36a6.41,6.41,0,0,1,1.7-.07,4.53,4.53,0,0,1,4,2.9,11.82,11.82,0,0,1,.7,5.86C81.24,177.38,80.46,183.59,75.12,183.09Zm4.29-13.54a3.37,3.37,0,0,0-2.83-2.07c-3.17-.3-4.29,3.27-4.6,6.58a16.92,16.92,0,0,0,.15,4.26,3.59,3.59,0,0,0,3.22,3.18c3.41.32,4.28-3.7,4.55-6.62l0-.26A11.09,11.09,0,0,0,79.41,169.55Z"/>
          <path d="M86.72,183.83l.15-1.59,5.08.48,1.24-13.24L88,170l.15-1.59,6.8-.85-1.43,15.26,4.93.46-.15,1.59Z"/>
          <path d="M104,185.45l.15-1.59,5.08.48,1.24-13.24-5.18.56.15-1.59,6.8-.85-1.43,15.26,4.93.46-.15,1.59Z"/>
          <path d="M127,188c-5-.47-5-6.43-4.73-9.2,0-.37.24-1.67.44-2.55.54-2.34,1.82-4.87,4.29-5.36a6.41,6.41,0,0,1,1.7-.07,4.53,4.53,0,0,1,4,2.9,11.81,11.81,0,0,1,.7,5.86C133.17,182.24,132.38,188.45,127,188Zm4.3-13.54a3.37,3.37,0,0,0-2.83-2.07c-3.17-.3-4.29,3.27-4.6,6.58a17,17,0,0,0,.15,4.26,3.59,3.59,0,0,0,3.22,3.18c3.41.32,4.28-3.7,4.55-6.62l0-.26A11.1,11.1,0,0,0,131.34,174.41Z"/>
          <path d="M138.64,188.69l.15-1.59,5.08.48,1.24-13.24-5.17.56.15-1.59,6.8-.85-1.43,15.26,4.93.46-.15,1.59Z"/>
          <path d="M161.66,191.2c-5-.46-5-6.43-4.73-9.2,0-.37.24-1.67.44-2.55.54-2.34,1.82-4.87,4.29-5.36a6.41,6.41,0,0,1,1.7-.07,4.53,4.53,0,0,1,4,2.9,11.82,11.82,0,0,1,.7,5.86C167.78,185.48,167,191.7,161.66,191.2Zm4.3-13.54a3.37,3.37,0,0,0-2.83-2.07c-3.17-.3-4.29,3.26-4.6,6.58a16.93,16.93,0,0,0,.15,4.27,3.59,3.59,0,0,0,3.22,3.18c3.4.32,4.28-3.7,4.55-6.62l0-.26A11.1,11.1,0,0,0,166,177.66Z"/>
          <path d="M173.26,191.93l.15-1.59,5.08.48,1.24-13.24-5.18.56.15-1.59,6.8-.85L180.07,191l4.93.46-.15,1.59Z"/>
          <path d="M190.57,193.55l.15-1.59,5.08.48L197,179.2l-5.17.56.15-1.59,6.8-.85-1.43,15.26,4.93.46-.15,1.59Z"/>
          <path d="M213.58,196.06c-5-.46-5-6.43-4.73-9.2,0-.37.24-1.67.44-2.55.54-2.34,1.82-4.87,4.29-5.36a6.41,6.41,0,0,1,1.7-.07,4.52,4.52,0,0,1,4,2.9,11.82,11.82,0,0,1,.7,5.86C219.71,190.35,218.92,196.56,213.58,196.06Zm4.3-13.54a3.38,3.38,0,0,0-2.83-2.07c-3.17-.3-4.29,3.27-4.6,6.58a16.89,16.89,0,0,0,.15,4.26,3.59,3.59,0,0,0,3.22,3.18c3.4.32,4.28-3.7,4.55-6.62l0-.26A11.1,11.1,0,0,0,217.88,182.52Z"/>
          <path d="M225.18,196.8l.15-1.59,5.08.48,1.24-13.24-5.18.56.15-1.59,6.8-.85L232,195.83l4.93.46-.15,1.59Z"/>
          <path d="M242.49,198.42l.15-1.59,5.08.48L249,184.06l-5.18.56.15-1.59,6.8-.85-1.43,15.26,4.93.46-.15,1.59Z"/>
        </g>
      </g>
      <path d="M157.66,176a2.62,2.62,0,0,0,2.35,2.32c2.49.23,3.12-2.7,3.32-4.83m1.16-.17c-.19,2-.76,6.52-4.66,6.15a3.66,3.66,0,0,1-3.28-3.19m8-3.84c0,.25,0,.48,0,.68"/>
      <path d="M138.15,175.22a3.46,3.46,0,0,1-3.58,1.93c-3.62-.34-3.64-4.7-3.45-6.72m1.11,1.41a12.62,12.62,0,0,0,.16,1.83,2.62,2.62,0,0,0,2.35,2.32,2.44,2.44,0,0,0,2.52-1.53"/>
      <path d="M175.77,128.59l1.09.1.91-9.67-3.78.41.11-1.16,5-.62-1,11.14,3.6.34-.11,1.16-5.37-.5"/>
      <path d="M124.79,124.7c-1.75-1.39-1.73-4.42-1.58-6,0-.27.18-1.22.32-1.86.39-1.71,1.33-3.55,3.13-3.92a4.68,4.68,0,0,1,1.24-.05,3.3,3.3,0,0,1,2.9,2.12,8.63,8.63,0,0,1,.51,4.28l0,.36m-1.25.81c.05-.34.09-.68.12-1l0-.19a8.09,8.09,0,0,0-.38-3.71,2.46,2.46,0,0,0-2.07-1.51c-2.32-.22-3.13,2.39-3.36,4.81a12.37,12.37,0,0,0,.11,3.11,3,3,0,0,0,.79,1.63"/>
    </g>
  </g>
</svg>
