<svg id="Calque_1" data-name="Calque 1" xmlns="http://www.w3.org/2000/svg" viewBox="0 0 300 300">
  <defs>
    <style>
      .cls-1 {
        fill: #fff;
      }
    </style>
  </defs>
  <title>PICTO-ANALYSER</title>
  <g>
    <g>
      <circle class="cls-1" cx="148.97" cy="151.33" r="122.5"/>
      <path d="M149,31.33a120,120,0,0,1,84.85,204.85A120,120,0,0,1,64.12,66.48,119.21,119.21,0,0,1,149,31.33m0-2.5a122.5,122.5,0,1,0,122.5,122.5A122.5,122.5,0,0,0,149,28.83Z"/>
    </g>
    <g>
      <path d="M190.7,120.34a12.18,12.18,0,1,0-12.18-12.18A12.2,12.2,0,0,0,190.7,120.34Zm0-20.88a8.7,8.7,0,1,1-8.7,8.7A8.71,8.71,0,0,1,190.7,99.46Z"/>
      <path d="M226,127.32c-1.16-3.38-5.48-2.2-7.33-1.69L194,132.36,172,116a1.74,1.74,0,0,0-2.25.15l-66,63.69L75,198.31a5.9,5.9,0,0,0-3.19,5,3.14,3.14,0,0,0,1.63,2.63,5.35,5.35,0,0,0,2.78.75,6.12,6.12,0,0,0,2.75-.67c.44-.22,5.7-2.66,11.27-5.23l15.86-7.36c1.29-.6,2-.93,2.59-1.18.85-.38,1.35-.61,2.76-1.31,2.39-1.2,5.84-3.49,6.05-3.64L139,171.42l29.63,1.19-7.45,24.49c-.84,2.52-1.35,7.23,2,8.92a3.14,3.14,0,0,0,2.58.12c2.34-.89,3.94-4.4,4.42-5.59l16.16-31.18c.47-.73,2.7-4.47,1.21-7.46s-5.4-3.26-6.1-3.28l-20.75-2,17.44-18.41,11.55,7.35a1.74,1.74,0,0,0,1.54.16c1.08-.4,26.56-9.79,30.34-11.68C224.38,132.71,226.83,129.74,226,127.32Zm-61.63,41.63c.88-3.78,4.42-6.39,6.89-7.8l7.61.72a6.52,6.52,0,0,0,.44,3.42,8,8,0,0,0,3.35,3.74l-4.44,8.56a10.94,10.94,0,0,1-4,.21,8.41,8.41,0,0,1-3.23-1l1.63-5.37a1.74,1.74,0,0,0-1.59-2.25ZM167.11,199l-.07.15a9.62,9.62,0,0,1-2.36,3.66c-1-.69-.6-3.33-.16-4.69l5.63-18.5a13.12,13.12,0,0,0,4.81,1.13l.76,0,.85,0Zm17.39-35.55c.35.7,0,2-.48,3a5.07,5.07,0,0,1-2-2.29,3.61,3.61,0,0,1-.2-2.05C182.55,162.21,184,162.52,184.5,163.47ZM220.09,131c-2.81,1.4-19.86,7.79-29.18,11.23l-12-7.66a1.74,1.74,0,0,0-2.2.27l-20.88,22a1.74,1.74,0,0,0,1.1,2.93l9.83.94a13.7,13.7,0,0,0-5.29,8.11l-22.87-.92a1.73,1.73,0,0,0-1.1.34l-22,16.2s-3.42,2.27-5.61,3.37c-1.34.67-1.82.88-2.63,1.25-.58.26-1.32.59-2.64,1.21l-15.86,7.35c-6.95,3.22-10.9,5-11.37,5.28a2.34,2.34,0,0,1-2.09.1,2.79,2.79,0,0,1,1.33-1.62l.16-.09,29-18.56a1.76,1.76,0,0,0,.27-.21l65.07-62.79,21.44,15.94a1.75,1.75,0,0,0,1.5.28l25.52-7a8.69,8.69,0,0,1,3-.48A5.43,5.43,0,0,1,220.09,131Z"/>
    </g>
  </g>
</svg>
