<svg id="Calque_1" data-name="Calque 1" xmlns="http://www.w3.org/2000/svg" viewBox="0 0 300 300">
  <defs>
    <style>
      .cls-1 {
        fill: #fff;
      }
    </style>
  </defs>
  <title>PICTO-ANALYSER</title>
  <g>
    <g>
      <circle class="cls-1" cx="155.82" cy="149.92" r="122.5"/>
      <path d="M155.82,29.92a120,120,0,0,1,84.85,204.85A120,120,0,1,1,71,65.07a119.21,119.21,0,0,1,84.85-35.15m0-2.5a122.5,122.5,0,1,0,122.5,122.5,122.5,122.5,0,0,0-122.5-122.5Z"/>
    </g>
    <g>
      <path d="M179.43,125.37l-15.17-2.2-6.78-13.74a1.86,1.86,0,0,0-3.33,0l-6.78,13.74-15.17,2.2a1.86,1.86,0,0,0-1,3.17l11,10.7-2.59,15.11a1.86,1.86,0,0,0,2.69,2l13.57-7.13,13.57,7.13a1.86,1.86,0,0,0,2.69-2l-2.59-15.11,11-10.7a1.86,1.86,0,0,0-1-3.17ZM166.2,137.25a1.86,1.86,0,0,0-.53,1.64l2.12,12.36-11.1-5.84a1.86,1.86,0,0,0-1.73,0l-11.1,5.84L146,138.89a1.86,1.86,0,0,0-.53-1.64l-9-8.75,12.41-1.8a1.86,1.86,0,0,0,1.4-1l5.55-11.25,5.55,11.25a1.86,1.86,0,0,0,1.4,1l12.41,1.8Z"/>
      <path d="M216,193.06l-24.76-35.52a43.43,43.43,0,1,0-70.82,0L95.65,193.06a1.86,1.86,0,0,0,1.89,2.88l20.37-4.07,2.67,17.38a1.85,1.85,0,0,0,1.41,1.52,1.83,1.83,0,0,0,.42,0,1.86,1.86,0,0,0,1.52-.79l24.4-34.82a42.84,42.84,0,0,0,15,0L187.7,210a1.86,1.86,0,0,0,1.52.79,1.83,1.83,0,0,0,.42,0,1.85,1.85,0,0,0,1.41-1.52l2.67-17.38,20.37,4.07a1.86,1.86,0,0,0,1.89-2.88Zm-92.44,11.06-2.27-14.73a1.86,1.86,0,0,0-2.2-1.54l-17.74,3.55,21.46-30.8a43.5,43.5,0,0,0,21.62,13.74Zm1-47.24a1.82,1.82,0,0,0-.7-1l-.12-.05a39.71,39.71,0,1,1,64.18,0l-.12.05a1.82,1.82,0,0,0-.7,1,39.64,39.64,0,0,1-62.55,0Zm68,31a1.86,1.86,0,0,0-2.2,1.54l-2.27,14.73-20.87-29.78a43.5,43.5,0,0,0,21.62-13.74l21.46,30.8Z"/>
    </g>
  </g>
</svg>
