<svg id="Calque_1" data-name="Calque 1" xmlns="http://www.w3.org/2000/svg" viewBox="0 0 300 300">
  <defs>
    <style>
      .cls-1 {
        fill: #fff;
      }
    </style>
  </defs>
  <title>PICTO-ANALYSER</title>
  <g>
    <g>
      <circle class="cls-1" cx="151.71" cy="151.19" r="122.5"/>
      <path d="M151.71,31.19A120,120,0,0,1,236.56,236,120,120,0,1,1,66.85,66.34a119.21,119.21,0,0,1,84.85-35.15m0-2.5a122.5,122.5,0,1,0,122.5,122.5,122.5,122.5,0,0,0-122.5-122.5Z"/>
    </g>
    <g>
      <polygon points="205.03 203.76 96.73 203.76 96.73 100.28 99.73 100.28 94.72 91.61 89.71 100.28 92.71 100.28 92.71 207.78 205.03 207.78 205.03 210.78 213.71 205.77 205.03 200.76 205.03 203.76"/>
      <path d="M110,176.83a4.81,4.81,0,0,0,3.93-7.61c2.59-3.56,6.5-9.28,12.59-18.38a4.63,4.63,0,0,0,4.38-.72l16.95,11.65a4.76,4.76,0,0,0-.06.59,4.82,4.82,0,1,0,8.91-2.54l11.66-33.69a4.77,4.77,0,0,0,1-.2L183.93,142l23.52-24.9a4.77,4.77,0,0,0,1.43.24,4.83,4.83,0,1,0-4.43-2.92L184,136.08l-11.67-12.84a4.83,4.83,0,1,0-7.77,1.58l-11.34,32.76a4.36,4.36,0,0,0-3.27.74L132.8,146.55c0-.09,0-.18,0-.28a4.82,4.82,0,1,0-9.3,1.79c-4.95,7.37-10,14.74-13.16,19.16-.13,0-.25,0-.37,0a4.82,4.82,0,0,0,0,9.65Z"/>
    </g>
  </g>
</svg>
