<svg id="Calque_1" data-name="Calque 1" xmlns="http://www.w3.org/2000/svg" viewBox="0 0 300 300">
  <defs>
    <style>
      .cls-1 {
        fill: #fff;
      }
    </style>
  </defs>
  <title>PICTO-ANALYSER</title>
  <g>
    <g>
      <circle class="cls-1" cx="149.41" cy="149.95" r="122.5"/>
      <path d="M149.41,30a120,120,0,0,1,84.85,204.85A120,120,0,0,1,64.56,65.1,119.21,119.21,0,0,1,149.41,30m0-2.5A122.5,122.5,0,1,0,271.91,150a122.5,122.5,0,0,0-122.5-122.5Z"/>
    </g>
    <path d="M161.77,172.83c-.52-2.46-1-4.32-1.19-5.26a52.51,52.51,0,0,1,0-20.78c.34-1.34,1.72-5,3.48-9.73,5.74-15.3,15.34-40.92,15.34-54.24a1.8,1.8,0,0,0-3.61,0c0,9.7-5.76,27.32-10.83,41.37-8.27-6.48-17.39-10-22-10-.41,0-.93,0-1.51-.07-3-.19-8.16-.5-13.16,2.25,2.81-11.27,6.35-24.58,9.16-33A1.8,1.8,0,1,0,134,82.24c-4.44,13.33-10.69,38.67-13,49.27-3.08,13.86-.79,41.87,0,51.08,1,12.1,5.92,28,8.79,35.18a1.8,1.8,0,1,0,3.35-1.34c-2.79-7-7.58-22.43-8.54-34.13-.18-2.18-.34-4.29-.48-6.35,5.67,3.32,13.59,5.41,17.45,5.41,3,0,11.78-.86,17.46-4.32,2.15,10.7,4.86,27,3.86,34a1.8,1.8,0,0,0,1.53,2l.26,0a1.8,1.8,0,0,0,1.78-1.55c1.19-8.32-2.21-27.16-4.37-37.52A1.75,1.75,0,0,0,161.77,172.83Zm-4.69-4.39c.28,1.1.66,2.76,1.09,4.79-4.33,3.37-13.08,4.52-16.67,4.52-4,0-13-2.64-17.76-6.34q-.53-8.52-.67-15.51a9.3,9.3,0,0,0,6.15,2.36c5.37,0,9.75-4.7,9.75-10.47s-4.37-10.47-9.75-10.47a9.25,9.25,0,0,0-5.74,2,55.88,55.88,0,0,1,1-7.05c.62-2.78,1.51-6.59,2.56-10.92a1.76,1.76,0,0,0,.8-.35c4.64-3.82,10.1-3.48,13.36-3.28.68,0,1.26.08,1.74.08,3.49,0,12.46,3.16,20.72,9.93-1.08,2.93-2.1,5.66-3,8-1.87,5-3.22,8.58-3.6,10.12A56,56,0,0,0,157.08,168.44Zm-34-20.65c0-3.78,2.75-6.86,6.14-6.86s6.14,3.08,6.14,6.86-2.75,6.86-6.14,6.86S123.1,151.57,123.1,147.79Z"/>
  </g>
</svg>
